<svg width="187" height="186" viewBox="0 0 187 186" fill="none" xmlns="http://www.w3.org/2000/svg">
<circle cx="93.5" cy="92.9262" r="92.9262" fill="#E60012"/>
<path d="M139.619 59.5699C129.686 51.9368 115.029 47.9023 97.2332 47.9023C81.447 47.9023 65.6851 51.1021 53.9883 56.6809C39.1642 63.7519 31.3287 74.2431 31.3287 87.0209C31.3287 87.2201 31.3287 98.6837 31.3287 98.6837C31.3287 105.612 33.957 111.945 38.7291 116.515C43.8049 121.376 50.8881 123.945 59.2132 123.945C60.9364 123.945 62.6662 123.805 64.3548 123.53C73.4468 122.049 83.0536 124.598 90.7101 130.522C97.6152 135.865 105.891 138.689 114.642 138.689C136.227 138.689 153.787 121.128 153.787 99.5437C153.787 99.5437 153.788 88.0946 153.788 87.8808C153.787 76.6445 148.756 66.5899 139.619 59.5699ZM114.642 133.691C107.008 133.691 99.79 131.229 93.7685 126.569C85.0199 119.801 74.0063 116.895 63.5514 118.597C62.1273 118.829 60.6676 118.947 59.2129 118.947C45.4813 118.947 38.3392 111.269 36.6983 102.642C37.3244 103.417 38.0015 104.155 38.7291 104.852C43.8049 109.713 50.8881 112.282 59.2132 112.282C60.9364 112.282 62.6662 112.142 64.3548 111.867C73.4468 110.386 83.0536 112.935 90.7101 118.859C97.6152 124.202 105.891 127.026 114.642 127.026C128.298 127.026 140.341 119.996 147.348 109.365C143.118 123.422 130.058 133.691 114.642 133.691ZM114.642 122.029C107.008 122.029 99.7902 119.566 93.7687 114.907C86.6611 109.407 78.0591 106.458 69.4755 106.458C67.494 106.458 65.5128 106.615 63.5516 106.935C62.1275 107.167 60.6678 107.284 59.2132 107.284C43.4033 107.284 36.3266 97.1068 36.3266 87.0209C36.3266 73.484 47.1013 65.5034 56.1402 61.1922C67.188 55.9229 82.166 52.9004 97.2334 52.9004C113.918 52.9004 127.522 56.5773 136.575 63.533C144.566 69.6734 148.79 78.0929 148.79 87.8812C148.789 106.71 133.471 122.029 114.642 122.029Z" fill="white" stroke="white"/>
<path d="M120.258 78.5791C115.446 74.9109 107.906 74.9109 103.093 78.5791C100.607 80.4741 99.1814 83.1618 99.1814 85.9534C99.1814 88.7451 100.607 91.4335 103.093 93.328C105.413 95.096 108.492 96.0711 111.679 96.0709C112.047 96.0709 112.417 96.0579 112.788 96.0314C114.165 95.9333 115.201 94.7382 115.103 93.3615C115.005 91.9848 113.812 90.9491 112.433 91.0462C110.057 91.2144 107.756 90.5983 106.123 89.3533C104.869 88.3981 104.179 87.1907 104.179 85.9537C104.179 84.7164 104.87 83.5093 106.123 82.554C109.133 80.2598 114.219 80.2598 117.229 82.554C118.471 83.5004 119.161 84.6963 119.172 85.9221C119.185 87.2943 120.301 88.3976 121.671 88.3976C121.679 88.3976 121.687 88.3976 121.695 88.3976C123.074 88.3847 124.183 87.2553 124.17 85.8752C124.143 83.0723 122.754 80.4813 120.258 78.5791Z" fill="white" stroke="white"/>
<path d="M120.729 89.8247C119.891 88.7281 118.323 88.5181 117.226 89.3555L117.206 89.371C116.109 90.2086 115.899 91.7766 116.736 92.8738C117.228 93.5176 117.972 93.8561 118.724 93.8561C119.253 93.8561 119.786 93.6889 120.239 93.343L120.259 93.3275C121.356 92.4896 121.566 90.9216 120.729 89.8247Z" fill="white" stroke="white"/>
<path d="M90.7749 62.634C90.6702 61.258 89.4683 60.2289 88.0935 60.3319C76.2227 61.2358 65.3251 63.9689 57.4083 68.0275C47.3796 73.169 42.0787 80.4118 42.0787 88.9722C42.0785 90.3522 43.1971 91.4711 44.5774 91.4711C45.9577 91.4711 47.0763 90.3525 47.0763 88.9722C47.0763 73.8373 69.3762 66.7689 88.4728 65.3152C89.8493 65.2104 90.8797 64.0098 90.7749 62.634Z" fill="white" stroke="white"/>
<path d="M96.355 60.0139C94.9749 60.0139 93.8561 61.1325 93.8561 62.5128C93.8561 63.8929 94.9747 65.0118 96.355 65.0118H96.3775C97.7575 65.0118 98.8652 63.8931 98.8652 62.5128C98.8652 61.1328 97.7353 60.0139 96.355 60.0139Z" fill="white" stroke="white"/>
</svg>
