<svg width="187" height="186" viewBox="0 0 187 186" fill="none" xmlns="http://www.w3.org/2000/svg">
<circle cx="93.5" cy="92.9262" r="92.9262" fill="#E60012"/>
<g clip-path="url(#clip0_1_654)">
<path d="M150.582 78.548C149.746 76.192 147.504 74.634 144.996 74.634C144.312 74.634 143.628 74.748 142.982 74.976L134.622 77.978V76.04C134.622 71.366 130.822 67.566 126.148 67.566H61.8521C57.1781 67.566 53.3781 71.366 53.3781 76.04V77.978L45.0181 74.976C44.3721 74.748 43.6881 74.634 43.0041 74.634C40.4961 74.634 38.2541 76.192 37.4181 78.548C36.8861 80.03 36.9621 81.664 37.6081 83.07C38.2921 84.514 39.4701 85.578 40.9521 86.11L53.3401 90.594V119.588C53.3401 127.416 58.8121 133.952 66.1461 135.624C66.8681 140.222 70.8581 143.794 75.6841 143.794H112.316C117.142 143.794 121.132 140.26 121.854 135.624C129.188 133.952 134.66 127.416 134.66 119.588V90.594L147.01 86.148C148.492 85.616 149.708 84.514 150.354 83.108C151.038 81.664 151.114 80.068 150.582 78.548ZM53.3401 86.566L42.2441 82.576C41.7121 82.386 41.2941 82.006 41.0281 81.474C40.8001 80.98 40.7621 80.372 40.9521 79.84C41.2561 79.004 42.0541 78.434 42.9661 78.434C43.1941 78.434 43.4601 78.472 43.6881 78.548L53.3401 82.006V86.566ZM112.316 139.994H75.6841C73.1381 139.994 70.9341 138.322 70.1741 136.042H117.826C117.028 138.322 114.862 139.994 112.316 139.994ZM130.86 119.588C130.86 126.58 125.198 132.242 118.206 132.242H69.7941C62.8401 132.242 57.1401 126.58 57.1401 119.588V76.078C57.1401 73.494 59.2301 71.404 61.8141 71.404H126.11C128.694 71.404 130.784 73.494 130.784 76.078V119.588H130.86ZM146.934 81.474C146.706 81.968 146.25 82.386 145.718 82.576L134.66 86.566V82.044L144.312 78.586C144.54 78.51 144.806 78.472 145.034 78.472C145.946 78.472 146.744 79.042 147.048 79.878C147.2 80.372 147.162 80.942 146.934 81.474Z" fill="white"/>
<path d="M105.704 100.892H82.2961C79.5981 100.892 77.3941 103.096 77.3941 105.794V119.018C77.3941 121.716 79.5981 123.92 82.2961 123.92H105.704C108.402 123.92 110.606 121.716 110.606 119.018V105.794C110.606 103.058 108.402 100.892 105.704 100.892ZM106.806 119.018C106.806 119.626 106.312 120.12 105.704 120.12H82.2961C81.6881 120.12 81.1941 119.626 81.1941 119.018V105.794C81.1941 105.186 81.6881 104.692 82.2961 104.692H105.704C106.312 104.692 106.806 105.186 106.806 105.794V119.018Z" fill="white"/>
<path d="M81.1941 87.174H106.768C107.832 87.174 108.668 86.338 108.668 85.274C108.668 84.21 107.832 83.374 106.768 83.374H81.1941C80.1301 83.374 79.2941 84.21 79.2941 85.274C79.2941 86.338 80.1681 87.174 81.1941 87.174Z" fill="white"/>
<path d="M61.7381 64.564C71.2001 57.762 82.2961 54.152 94.0001 54.152C105.704 54.152 116.8 57.724 126.262 64.526C127.098 65.134 128.238 64.982 128.884 64.146C129.53 63.31 129.378 62.056 128.504 61.448C121.17 56.166 112.924 52.708 104.146 51.188C104.184 50.884 104.184 50.618 104.184 50.314C104.184 44.728 99.6241 40.168 94.0381 40.168C88.4521 40.168 83.8921 44.728 83.8921 50.314C83.8921 50.618 83.8921 50.884 83.9301 51.188C75.1521 52.708 66.9061 56.166 59.5721 61.448C58.6981 62.056 58.5461 63.31 59.1921 64.146C59.7621 64.982 60.9021 65.172 61.7381 64.564ZM94.0001 44.006C97.4961 44.006 100.346 46.856 100.346 50.352C100.346 50.466 100.346 50.58 100.346 50.694C98.2561 50.466 96.1281 50.352 94.0001 50.352C91.8721 50.352 89.7441 50.466 87.6541 50.694C87.6541 50.58 87.6541 50.466 87.6541 50.352C87.6541 46.856 90.5041 44.006 94.0001 44.006Z" fill="white"/>
</g>
<defs>
<clipPath id="clip0_1_654">
<rect width="114" height="114" fill="white" transform="translate(37.0001 35)"/>
</clipPath>
</defs>
</svg>
