<svg width="187" height="186" viewBox="0 0 187 186" fill="none" xmlns="http://www.w3.org/2000/svg">
<circle cx="93.5" cy="92.9262" r="92.9262" fill="#E60012"/>
<path d="M49.9464 62.6059V57.4156C49.9464 57.134 50.228 56.9529 50.4694 57.0535L93.3593 73.449C93.4397 73.4893 93.5403 73.4893 93.6409 73.449L136.531 57.0535C136.792 56.9529 137.054 57.1541 137.054 57.4156V62.6059" stroke="white" stroke-width="3" stroke-miterlimit="10" stroke-linecap="round" stroke-linejoin="round"/>
<path d="M54.8952 58.502V53.2111C54.8952 52.9094 55.2171 52.7283 55.4786 52.8692L93.319 73.3887C93.4397 73.449 93.5806 73.449 93.7013 73.3887L131.522 52.849C131.783 52.7082 132.105 52.8893 132.105 53.191V58.502" stroke="white" stroke-width="3" stroke-miterlimit="10" stroke-linecap="round" stroke-linejoin="round"/>
<path d="M141.48 123.601L93.8823 135.39C93.6811 135.43 93.5001 135.289 93.5001 135.088V73.791C93.5001 73.61 93.6208 73.449 93.8018 73.4088L141.299 61.6403C141.54 61.5799 141.781 61.761 141.781 62.0225V123.219C141.781 123.4 141.661 123.561 141.48 123.601Z" stroke="white" stroke-width="3" stroke-miterlimit="10" stroke-linecap="round" stroke-linejoin="round"/>
<path d="M93.1983 135.41L45.5206 123.601C45.3395 123.561 45.2188 123.4 45.2188 123.219V62.0225C45.2188 61.761 45.4602 61.5799 45.7017 61.6403L93.1983 73.4088C93.3794 73.449 93.5001 73.61 93.5001 73.791V135.169C93.5001 135.35 93.3593 135.45 93.1983 135.41Z" stroke="white" stroke-width="3" stroke-miterlimit="10" stroke-linecap="round" stroke-linejoin="round"/>
<path d="M129.389 118.532L107.944 123.641C107.703 123.702 107.461 123.521 107.461 123.259V112.275C107.461 112.094 107.582 111.933 107.763 111.893L129.208 106.783C129.45 106.723 129.691 106.904 129.691 107.165V118.149C129.691 118.33 129.57 118.491 129.389 118.532Z" stroke="white" stroke-width="3" stroke-miterlimit="10" stroke-linecap="round" stroke-linejoin="round"/>
</svg>
